<svg xmlns="http://www.w3.org/2000/svg" xmlns:xlink="http://www.w3.org/1999/xlink" width="374.108" height="106.854" viewBox="0 0 374.108 106.854"><defs><style>.a{fill:url(#a);}.b{fill:#092c60;}.c{fill:url(#b);}.d{fill:url(#c);}</style><linearGradient id="a" x1="-0.002" y1="0.499" x2="0.997" y2="0.499" gradientUnits="objectBoundingBox"><stop offset="0" stop-color="#0578be"/><stop offset="1" stop-color="#77d9d3"/></linearGradient><linearGradient id="b" x1="0" y1="0.5" x2="1" y2="0.5" xlink:href="#a"/><linearGradient id="c" y1="0.501" x2="1" y2="0.501" gradientUnits="objectBoundingBox"><stop offset="0" stop-color="#77d9d3"/><stop offset="1" stop-color="#0578be"/></linearGradient></defs><ellipse class="a" cx="5.484" cy="5.484" rx="5.484" ry="5.484" transform="translate(363.141 62.983)"/><path class="b" d="M342.245,37.345a3.31,3.31,0,1,1,.968-2.339A3.23,3.23,0,0,1,342.245,37.345Zm-4.6,42.741V45.651h4.516V80.086Z" transform="translate(-65.152 -6.136)"/><path class="b" d="M361.145,57.658a4.159,4.159,0,0,0,2.1,3.629,18.525,18.525,0,0,0,5.081,2.177c1.935.565,3.952,1.129,5.887,1.694a11.1,11.1,0,0,1,5,3.064,8.089,8.089,0,0,1,2.016,5.806,8.747,8.747,0,0,1-3.468,7.177,13.944,13.944,0,0,1-8.951,2.742,15.744,15.744,0,0,1-8.468-2.177,11.45,11.45,0,0,1-4.839-5.726l3.871-2.258a8.179,8.179,0,0,0,3.468,4.274,12.349,12.349,0,0,0,11.613.161,4.439,4.439,0,0,0,2.258-4.193,4.288,4.288,0,0,0-2.1-3.71,19.109,19.109,0,0,0-5-2.258c-1.935-.565-3.952-1.129-5.887-1.694a10.949,10.949,0,0,1-5-2.984,7.868,7.868,0,0,1-2.1-5.645,8.864,8.864,0,0,1,3.306-7.016A12.773,12.773,0,0,1,368.4,47.9a14.372,14.372,0,0,1,7.339,1.855,11.558,11.558,0,0,1,4.677,5.161l-3.79,2.177q-2.056-4.839-8.226-4.839a9.369,9.369,0,0,0-5.081,1.371A4.715,4.715,0,0,0,361.145,57.658Z" transform="translate(-68.81 -9.271)"/><path class="b" d="M413.584,47.9a15.513,15.513,0,0,1,12.339,5.4,18.932,18.932,0,0,1,4.758,12.742c0,.484-.081,1.21-.161,2.1H400.277a12.458,12.458,0,0,0,4.435,8.306,14.273,14.273,0,0,0,9.274,3.064,14.019,14.019,0,0,0,6.774-1.613,10.39,10.39,0,0,0,4.274-4.274l4.032,2.339a16.573,16.573,0,0,1-6.21,5.806,17.916,17.916,0,0,1-8.951,2.1c-5.4,0-9.839-1.694-13.226-5.081A17.625,17.625,0,0,1,395.6,65.8a17.139,17.139,0,0,1,17.984-17.9Zm0,4.435a12.876,12.876,0,0,0-13.226,11.532h25.725a12.375,12.375,0,0,0-12.5-11.532Z" transform="translate(-76.572 -9.271)"/><path class="c" d="M70.806,17.419H35.967L53.386,0ZM27.9,38.87h16.29c-5.081-5.081-10-9.919-14.919-14.758L0,53.386l27.9,27.9V38.87Zm78.87,14.516L78.305,24.919h-37.5c8.79,8.79,13.468,13.387,14.032,13.951H84.193c.081,0,.081,0,.081.081V46.37c0,.081,0,.081-.081.081H35.4V88.87l17.984,17.984Z"/><path class="b" d="M172.006,56.393h5.887V45.426h-5.887c0-3.064,1.935-4.516,5.887-4.193V30.587c-5.726-.323-10.081.806-12.984,3.468q-4.355,3.871-4.355,11.371H156.2V56.393h4.355v9.758c3.71-1.129,7.581-2.177,11.451-3.145Z" transform="translate(-30.234 -5.91)"/><path class="b" d="M201.251,29.3H189.8V59.945c3.79-.806,7.581-1.532,11.451-2.258Z" transform="translate(-36.737 -5.671)"/><path class="b" d="M244.284,53.042A17.692,17.692,0,0,0,231.219,47.8a17.957,17.957,0,0,0-12.984,5.242,18.16,18.16,0,0,0-4.435,7.016,252.2,252.2,0,0,1,33.79-2.742A18.436,18.436,0,0,0,244.284,53.042Z" transform="translate(-41.383 -9.252)"/><path class="b" d="M298.339,49h-9.677L286,58.758c5.4.645,10.645,1.532,15.806,2.661Z" transform="translate(-55.358 -9.484)"/><path class="b" d="M274.4,49H262.3l2.661,8.629c3.952.081,7.9.323,11.774.645Z" transform="translate(-50.77 -9.484)"/><path class="b" d="M324.722,49h-12.1L309.4,62.226c3.548.887,7.016,1.935,10.322,3.064Z" transform="translate(-59.887 -9.484)"/><path class="d" d="M161.6,85.487V71.777c3.71-1.129,7.581-2.177,11.451-3.145V85.567H161.6Zm34.193,0V63.632c-3.871.645-7.661,1.452-11.451,2.258v19.6Zm6.935-17.258a17.676,17.676,0,0,1,.968-5.887,252.2,252.2,0,0,1,33.79-2.742,18.2,18.2,0,0,1,2.1,8.629,17.4,17.4,0,0,1-5.323,12.9A17.692,17.692,0,0,1,221.2,86.374a17.957,17.957,0,0,1-12.984-5.242A16.956,16.956,0,0,1,202.729,68.229Zm11.532,0A7.061,7.061,0,0,0,216.2,73.39a7.108,7.108,0,0,0,9.919,0,7.191,7.191,0,0,0,1.935-5.161,7.06,7.06,0,0,0-1.935-5.161,7.108,7.108,0,0,0-9.919,0A7.191,7.191,0,0,0,214.261,68.229ZM264.5,85.487l4.919-17.5,4.919,17.5h11.129l5.564-18.145c-3.387-1.129-6.774-2.177-10.322-3.064l-1.371,5.564-1.694-6.29c-5.081-1.129-10.4-2.016-15.806-2.661l-2.419,8.951-2.258-9.435c-3.871-.323-7.822-.565-11.774-.645l7.9,25.806H264.5Z" transform="translate(-31.279 -11.536)"/></svg>